<?xml version="1.0" encoding="UTF-8"?><svg id="Layer_1" xmlns="http://www.w3.org/2000/svg" viewBox="0 0 408.82 386.61"><defs><style>.cls-1{fill:none;}.cls-2{fill:#007cfd;}.cls-3{fill:#f34666;}.cls-4{fill:#cc7196;}.cls-5{fill:#04bc8e;}</style></defs><g><circle class="cls-1" cx="283.77" cy="113.94" r="79.36"/><path class="cls-3" d="m283.77,82c17.61,0,31.94,14.33,31.94,31.94s-14.33,31.94-31.94,31.94-31.94-14.33-31.94-31.94,14.33-31.94,31.94-31.94m0-14.16h0c-25.46,0-46.09,20.64-46.09,46.09h0c0,25.46,20.64,46.09,46.09,46.09h0c25.46,0,46.09-20.64,46.09-46.09h0c0-25.46-20.64-46.09-46.09-46.09h0Z"/></g><circle class="cls-1" cx="125.05" cy="113.94" r="79.36"/><path class="cls-5" d="m125.05,93.13l23.94,41.46h-47.87l23.94-41.46m0-28.32l-48.46,83.93h96.92l-48.46-83.93h0Z"/><g><circle class="cls-1" cx="125.05" cy="272.67" r="79.36"/><path class="cls-4" d="m152.52,245.19v54.95h-54.95v-54.95h54.95m14.16-14.16h-83.27v83.27h83.27v-83.27h0Z"/></g><g><circle class="cls-1" cx="283.77" cy="272.67" r="79.36"/><polygon class="cls-2" points="326.68 240.02 316.42 229.76 283.77 262.41 251.12 229.76 240.87 240.02 273.52 272.67 240.87 305.32 251.12 315.57 283.77 282.92 316.42 315.57 326.68 305.32 294.03 272.67 326.68 240.02"/></g></svg>