<?xml version="1.0" encoding="UTF-8"?><svg id="Layer_1" xmlns="http://www.w3.org/2000/svg" viewBox="0 0 557.33 118.04"><defs><style>.cls-1{fill:#007cfd;}.cls-2{fill:#f34666;}.cls-3{fill:#cc7196;}.cls-4{fill:#04bc8e;}</style></defs><path class="cls-2" d="m205.2,26.64c17.85,0,32.38,14.53,32.38,32.38s-14.53,32.38-32.38,32.38-32.38-14.53-32.38-32.38,14.53-32.38,32.38-32.38m0-14.36h0c-25.81,0-46.74,20.92-46.74,46.74h0c0,25.81,20.92,46.74,46.74,46.74h0c25.81,0,46.74-20.92,46.74-46.74h0c0-25.81-20.92-46.74-46.74-46.74h0Z"/><path class="cls-3" d="m526.17,31.16v55.72h-55.72V31.16h55.72m14.36-14.36h-84.43v84.43h84.43V16.81h0Z"/><polygon class="cls-1" points="395.26 25.92 384.86 15.52 351.76 48.62 318.65 15.52 308.25 25.92 341.36 59.02 308.25 92.13 318.65 102.52 351.76 69.42 384.86 102.52 395.26 92.13 362.15 59.02 395.26 25.92"/><path class="cls-4" d="m58.65,43.8l24.27,42.04h-48.54l24.27-42.04m0-28.71L9.52,100.19h98.27L58.65,15.09h0Z"/></svg>