<?xml version="1.0" encoding="UTF-8"?><svg id="Layer_1" xmlns="http://www.w3.org/2000/svg" viewBox="0 0 408.82 386.61"><defs><style>.cls-1{fill:none;}.cls-2{fill:#007cfd;}.cls-3{fill:#f34666;}.cls-4{fill:#cc7196;}.cls-5{fill:#04bc8e;}</style></defs><g><g><circle class="cls-1" cx="329.46" cy="193.3" r="79.36"/><path class="cls-3" d="m329.46,161.37c17.61,0,31.94,14.33,31.94,31.94s-14.33,31.94-31.94,31.94-31.94-14.33-31.94-31.94,14.33-31.94,31.94-31.94m0-14.16h0c-25.46,0-46.09,20.64-46.09,46.09h0c0,25.46,20.64,46.09,46.09,46.09h0c25.46,0,46.09-20.64,46.09-46.09h0c0-25.46-20.64-46.09-46.09-46.09h0Z"/></g><g><circle class="cls-1" cx="79.36" cy="193.3" r="79.36"/><path class="cls-4" d="m106.84,165.83v54.95h-54.95v-54.95h54.95m14.16-14.16H37.73v83.27h83.27v-83.27h0Z"/></g></g><g><g><circle class="cls-1" cx="204.41" cy="79.36" r="79.36"/><path class="cls-5" d="m204.41,58.56l23.94,41.46h-47.87l23.94-41.46m0-28.32l-48.46,83.93h96.92l-48.46-83.93h0Z"/></g><g><circle class="cls-1" cx="204.41" cy="307.24" r="79.36"/><polygon class="cls-2" points="247.31 274.59 237.06 264.34 204.41 296.99 171.76 264.34 161.5 274.59 194.15 307.24 161.5 339.89 171.76 350.15 204.41 317.5 237.06 350.15 247.31 339.89 214.66 307.24 247.31 274.59"/></g></g></svg>